# xmcd CD database file
#
# Track frame offsets:
#	150
#	12709
#	35936
#	51212
#	67717
#	82795
#	99543
#	116939
#	132053
#	148652
#	166908
#	183926
#	202114
#	220966
#	235365
#	248426
#
# Disc length: 3611 seconds
#
# Revision: 0
# Processed by: cddbd v1.5.2PL0 Copyright (c) Steve Scherf et al.
# Submitted via: CDex 1.50Beta7
#
DISCID=e30e1910
DTITLE=100 Folk Celsius - A dalok megmaradtak
DYEAR=1900
DGENRE=Country
TTITLE0=01 Gyere ki a hegyoldalba
TTITLE1=02 Ohio
TTITLE2=03 Régi csibészek
TTITLE3=04 Kégli dal
TTITLE4=05 Jöjj vissza vándor
TTITLE5=06 Mond hogy nem haragszol rám
TTITLE6=07 Vándorének
TTITLE7=08 Citromizü banán
TTITLE8=09 Ne vágj ki minden fát
TTITLE9=10 Szerelemvonat
TTITLE10=11 Kövér a nap
TTITLE11=12 Szállj fel magasra
TTITLE12=13 Kék színû virág
TTITLE13=14 s én
TTITLE14=15 Postakocsi
TTITLE15=16 Drága otthon
EXTD=
EXTT0=
EXTT1=
EXTT2=
EXTT3=
EXTT4=
EXTT5=
EXTT6=
EXTT7=
EXTT8=
EXTT9=
EXTT10=
EXTT11=
EXTT12=
EXTT13=
EXTT14=
EXTT15=
PLAYORDER=
